<svg aria-hidden="true" style="position:absolute;width:0;height:0" xmlns="http://www.w3.org/2000/svg" overflow="hidden"><defs><symbol id="close" viewBox="0 0 32 32"><path d="M32.017 3.225L28.792 0 16.009 12.783 3.226 0 .001 3.225l12.783 12.783L.001 28.791l3.225 3.225 12.783-12.783 12.783 12.783 3.225-3.225-12.783-12.783L32.017 3.225z"/></symbol><symbol id="email" viewBox="0 0 32 32"><path d="M28.01 4.007H4.001a2.997 2.997 0 00-2.987 3.001L1 25.014a3.01 3.01 0 003.001 3.001H28.01a3.01 3.01 0 003.001-3.001V7.008a3.01 3.01 0 00-3.001-3.001zm-.6 6.378l-10.608 6.63a1.514 1.514 0 01-1.597-.004l.006.004-10.61-6.632a1.274 1.274 0 111.354-2.158l-.005-.003 10.054 6.288 10.054-6.288a1.274 1.274 0 111.356 2.157l-.006.003z"/></symbol><symbol id="icon-send" viewBox="0 0 32 32"><path d="M32.011 0L0 18.006l10.23 3.788L26.009 7.002 14.007 23.194l.009.003-.012-.003v8.816l5.737-6.693 7.269 2.692 5-28.01z"/></symbol><symbol id="person" viewBox="0 0 32 32"><path d="M16.015 16.015a8.008 8.008 0 000-16.016 8.008 8.008 0 000 16.016zm0 4.004C10.671 20.019 0 22.702 0 28.027v2.002c0 1.1.902 2.002 2.002 2.002h28.027a2.01 2.01 0 002.002-2.002v-2.002c0-5.325-10.671-8.008-16.015-8.008z"/></symbol><symbol id="telephone" viewBox="0 0 32 32"><path d="M27.436 20.865l-4.204-.48a3.285 3.285 0 00-2.715.942l-3.046 3.046c-4.72-2.436-8.472-6.188-10.842-10.771l-.065-.139 3.065-3.058a3.285 3.285 0 00.943-2.73l.002.016-.48-4.172A3.316 3.316 0 006.805.591h-2.87C2.064.586.509 2.142.623 4.01c.878 14.134 12.181 25.423 26.302 26.302 1.869.114 3.426-1.441 3.426-3.312v-2.863-.016a3.281 3.281 0 00-2.899-3.258l-.015-.001z"/></symbol></defs></svg>